<svg xmlns="http://www.w3.org/2000/svg" viewBox="0 0 620 720" role="img" aria-labelledby="title desc">
<title id="title">Creative woman seated with a laptop</title>
<desc id="desc">A faceless editorial illustration of a woman sitting in an elegant chair while working on a laptop.</desc>
<defs>
  <linearGradient id="dress" x1="0" y1="0" x2="1" y2="1"><stop stop-color="#9f3c5f"/><stop offset="1" stop-color="#5b1832"/></linearGradient>
  <linearGradient id="chair" x1="0" y1="0" x2="0" y2="1"><stop stop-color="#edc9b3"/><stop offset="1" stop-color="#c98779"/></linearGradient>
  <linearGradient id="hair" x1="0" y1="0" x2="1" y2="1"><stop stop-color="#382027"/><stop offset="1" stop-color="#160e13"/></linearGradient>
  <filter id="shadow" x="-30%" y="-30%" width="160%" height="170%"><feDropShadow dx="0" dy="18" stdDeviation="17" flood-color="#2f101d" flood-opacity=".24"/></filter>
</defs>
<g fill="none" stroke-linecap="round" stroke-linejoin="round">
  <path d="M83 600c124 24 317 30 467 4" stroke="#efd8d7" stroke-width="3" opacity=".8"/>
  <circle cx="111" cy="140" r="46" stroke="#d8b46b" stroke-width="2" opacity=".55"/>
  <path d="M80 139h62M111 108v63" stroke="#d8b46b" stroke-width="2" opacity=".45"/>
  <path d="M520 123c18-16 38-14 48 2-19 3-27 13-31 30-8-14-14-21-17-32Z" fill="#f0c8d2" stroke="#c26884" stroke-width="2"/>
  <path d="M535 151c16 3 29 13 34 29-18-5-31 0-44 13 0-18 3-29 10-42Z" fill="#e8b4c3" stroke="#c26884" stroke-width="2"/>
  <path d="M515 178c-5 25 3 46 22 63" stroke="#9f3c5f" stroke-width="3" opacity=".55"/>
  <g opacity=".7" stroke="#9f3c5f" stroke-width="2">
    <path d="M68 318h28M82 304v28"/><path d="M541 360h23M552 348v24"/>
    <path d="M486 76h18M495 67v18"/><path d="M165 74h15M172 67v15"/>
  </g>
</g>
<!-- chair -->
<g filter="url(#shadow)">
  <path d="M196 270c-50 16-78 74-70 138l15 126h257l22-144c9-61-28-116-84-128-46-10-96-8-140 8Z" fill="url(#chair)"/>
  <path d="M150 390c9 77 12 126 14 166M397 385c-7 78-13 126-18 171" stroke="#7e334d" stroke-width="14" opacity=".65"/>
  <path d="M129 405c-37 7-56 27-56 58 0 28 18 48 48 52M419 402c38 5 58 25 59 55 1 29-16 50-48 55" fill="none" stroke="#d8b46b" stroke-width="12"/>
</g>
<!-- woman body -->
<g filter="url(#shadow)">
  <path d="M250 157c-30 23-38 65-17 94 9 13 22 22 37 27l-9 44c-34 15-53 48-48 88l16 128h151l17-129c5-42-18-78-57-90l-8-42c28-8 48-34 48-65 0-42-33-77-74-79-20-1-40 6-56 20Z" fill="#f0c2aa"/>
  <path d="M238 178c-13 30-11 78 15 100 18-29 36-45 63-55 25-9 46-5 65 5 2-17-1-36-10-52-20-36-66-53-103-35-13 6-23 19-30 37Z" fill="url(#hair)"/>
  <path d="M256 216c-3 59 18 97 61 113-49-5-83-33-93-78-7-32 1-64 22-86 2 17 5 34 10 51Z" fill="#24141b"/>
  <path d="M340 224c15 36 11 78-12 111 40-17 63-53 60-95-2-35-21-67-50-84 6 22 7 45 2 68Z" fill="#1c1116"/>
  <path d="M245 326c35-18 92-18 128 0 24 21 31 59 22 103l-18 109H228l-17-112c-7-43 4-79 34-100Z" fill="url(#dress)"/>
  <path d="M259 325c8 27 25 45 50 55 24-10 40-28 49-55" fill="#f7e5dc" opacity=".92"/>
  <path d="M282 383c-36 35-61 71-75 108l35 21c18-29 43-56 76-82M337 379c28 31 47 66 56 105l-36 17c-11-28-29-54-55-78" fill="#efb9a2"/>
  <path d="M226 531c35 27 66 50 94 71l35-32c-27-24-53-50-78-78M378 528c-25 27-49 50-72 69l34 34c27-19 55-45 83-78" fill="#351522"/>
  <path d="M315 602c-4 19-3 35 3 48l-77 10c-10 1-15-12-7-18l55-39M341 630c8 16 18 27 30 34l-65 36c-9 5-18-7-11-15l38-48" fill="#7a1f3d"/>
</g>
<!-- laptop -->
<g filter="url(#shadow)">
  <path d="M236 375h160c12 0 20 11 16 22l-36 105H226l-24-104c-3-12 6-23 18-23h16Z" fill="#fff9f6" stroke="#d8b46b" stroke-width="4"/>
  <path d="M218 502h176c7 0 11 8 7 14l-12 15H225l-15-16c-5-5-1-13 8-13Z" fill="#edd9d7"/>
  <circle cx="307" cy="431" r="18" fill="#e8acb9" opacity=".9"/><path d="M299 431h16M307 423v16" stroke="#7a1f3d" stroke-width="3"/>
</g>
<!-- cup and tiny stationery -->
<g filter="url(#shadow)">
  <ellipse cx="460" cy="528" rx="40" ry="13" fill="#e1b989" opacity=".45"/>
  <path d="M430 476h51v41c0 18-11 29-26 29s-25-11-25-29v-41Z" fill="#fff7f2" stroke="#9f3c5f" stroke-width="4"/>
  <path d="M482 486c24-2 27 32 1 34" fill="none" stroke="#9f3c5f" stroke-width="4"/>
  <path d="M445 461c-8-13 8-17 1-30M463 461c-7-11 8-16 2-27" fill="none" stroke="#d8b46b" stroke-width="3"/>
</g>
<!-- foreground sparkles -->
<g fill="#d8b46b"><path d="M92 532l5 13 13 5-13 5-5 13-5-13-13-5 13-5Z"/><path d="M530 526l4 10 10 4-10 4-4 10-4-10-10-4 10-4Z"/></g>
</svg>