<svg xmlns="http://www.w3.org/2000/svg" viewBox="0 0 240 240" role="img" aria-labelledby="t d">
<title id="t">Ayesha A monogram</title><desc id="d">A simple decorative A monogram for the portfolio.</desc>
<defs><linearGradient id="g" x1="0" y1="0" x2="1" y2="1"><stop stop-color="#f4cad4"/><stop offset="1" stop-color="#b95f7d"/></linearGradient></defs>
<circle cx="120" cy="120" r="104" fill="#fff8f5" stroke="url(#g)" stroke-width="3"/>
<path d="M72 174 112 61c3-9 13-9 16 0l40 113h-22l-10-31H99l-10 31H72Zm34-52h24l-12-38-12 38Z" fill="#7f3853"/>
<path d="M74 175c23-3 49-11 74-28" fill="none" stroke="#d88ca2" stroke-width="5" stroke-linecap="round"/>
<path d="M164 65c9-14 25-10 22 4 13-7 22 8 10 16 14 2 13 19-1 19 7 13-8 21-16 10-3 14-19 10-19-4-13 7-21-8-10-16-14-3-10-19 4-19-7-12 7-22 16-10Z" fill="#f0c3cf" opacity=".85"/>
</svg>
